<svg width="87" height="18" viewBox="0 0 87 18" fill="none" xmlns="http://www.w3.org/2000/svg">
<path d="M8.37677 5.00728L9.05083 1.7985H4.67934L4.02594 5.00728H8.37677Z" fill="white"/>
<path fill-rule="evenodd" clip-rule="evenodd" d="M11.6653 4.88066C13.8102 4.2262 13.3812 1.94617 16.6086 3.04394C15.4238 2.28421 14.1368 1.90435 12.9729 2.47399C11.4406 3.36063 10.5418 2.70619 10.6032 1.7985C10.7255 0.215596 12.4007 0.701023 12.9319 1.03877C12.9319 1.03877 11.8899 0.215596 10.5011 0.257995C9.35699 0.299817 8.00915 0.996664 7.49837 1.2499H9.94954L9.80635 1.92512C9.41866 3.88846 11.2773 4.58501 12.36 3.38168C10.7461 5.40849 9.62298 2.89625 9.17332 5.02832C10.2354 5.02832 10.8073 5.15496 11.6653 4.88066Z" fill="#DB1E2A"/>
<path d="M64.3028 17.5701H71.5094L72.1564 14.4202H69.2653L70.9808 6.07852H66.6616L64.3028 17.5701Z" fill="white"/>
<path d="M55.6625 17.5701H59.9821L60.6405 14.3253L67.2882 6.07852H62.3405L59.247 10.8114L58.2049 6.07852H53.1503L56.3207 14.3253L55.6625 17.5701Z" fill="white"/>
<path d="M6.57471 17.57H18.7215L19.3338 14.6101H11.4916L11.798 13.0907H17.8484L18.4304 10.273H12.3797L12.6558 8.89577H16.6019L17.1838 6.07868H8.9335L6.57471 17.57Z" fill="white"/>
<path d="M72.4333 17.57H84.58L85.1923 14.6101H77.3502L77.6563 13.0907H83.7069L84.2893 10.273H78.2386L78.5141 8.89577H82.4607L83.0427 6.07868H74.7921L72.4333 17.57Z" fill="white"/>
<path d="M43.7685 17.5701H48.0884L49.8499 8.99108H52.9684L53.582 6.07852H42.1144L41.5173 8.99108H45.5303L43.7685 17.5701Z" fill="white"/>
<path d="M27.3827 13.8435C27.3367 14.0809 27.3214 14.3024 27.3214 14.5239C27.3214 16.5343 29.2515 17.6923 33.0652 17.6923C38.166 17.6923 40.8616 16.4867 41.444 13.6061C41.5051 13.3367 41.5361 13.0679 41.5361 12.8303C41.5361 11.4057 40.5246 10.5669 38.4723 10.2503L34.6737 9.66475C33.5858 9.50641 33.0809 9.36363 33.1878 8.85744C33.2799 8.41411 33.8772 8.09772 34.9031 8.09772C36.106 8.09772 36.7467 8.40719 36.838 8.99098H41.8803C41.8874 8.87877 41.8878 8.76658 41.8878 8.66736C41.8878 6.48337 39.8204 5.54914 35.623 5.54914C31.273 5.54914 28.9911 6.60998 28.4548 9.2373C28.4087 9.49053 28.3781 9.74378 28.3781 9.96529C28.3781 11.4689 29.5113 12.3714 31.7631 12.6561L34.9031 13.0679C35.8987 13.1945 36.3584 13.4951 36.2512 13.986C36.1439 14.5401 35.4857 14.8089 34.3367 14.8089C33.1571 14.8089 32.545 14.4449 32.5904 13.8435H27.3827Z" fill="white"/>
<path d="M19.6571 17.5701H23.9764L25.7378 8.99108H28.8569L29.4704 6.07852H18.0025L17.4055 8.99108H21.4183L19.6571 17.5701Z" fill="white"/>
<path d="M0 17.6841C0.140115 17.6875 0.2833 17.6893 0.429835 17.6893C2.68898 17.6893 4.33016 17.1265 5.35423 16.0374C6.30294 15.0259 6.58877 13.7187 6.96501 11.8982L8.1546 6.07852H3.90844L2.62869 12.334C2.2971 13.9368 1.98115 14.6991 0.806919 14.6991C0.739094 14.6991 0.675456 14.6954 0.615168 14.6879L0 17.6841Z" fill="white"/>
<path d="M85.7689 6.07859H85.0697L84.7482 7.65486H85.2416L85.4526 6.62344L85.6188 7.65486H85.8074L86.39 6.62344L86.1794 7.65486H86.6783L87 6.07859H86.3015L85.8794 6.82966L85.7689 6.07859ZM84.8035 6.07859H83.3672L83.2784 6.50864H83.7218L83.4888 7.65486H84.0381L84.2711 6.50864H84.7149L84.8035 6.07859Z" fill="white"/>
</svg>